<svg width="1071" height="723" viewBox="0 0 1071 723" fill="none" xmlns="http://www.w3.org/2000/svg">
<g clip-path="url(#clip0_1842_19922)">
<rect width="1071" height="722.482" fill="#F9FAFD"/>
<g clip-path="url(#clip1_1842_19922)">
<path d="M963.656 509.874L581.535 718.258L140.626 476.33L522.747 268.176L963.656 509.874Z" fill="#F2F5F9"/>
<path d="M963.656 509.875V515.619L581.535 724.003V718.259L963.656 509.875Z" fill="#DAE2EA"/>
<path d="M581.535 718.252V723.996L140.626 482.068V476.324L581.535 718.252Z" fill="#C7CFDB"/>
<path d="M795.865 521.357L807.868 514.694L801.989 487.813L777.494 479.312L769.411 487.813L773.085 499.99L795.865 521.357Z" fill="#252C35"/>
<path d="M676.084 455.192L688.087 448.529L681.963 421.649L652.569 412.918V426.933L653.304 433.825L676.084 455.192Z" fill="#252C35"/>
<path d="M831.873 416.361L841.671 425.321L876.943 451.972L882.087 462.541C882.087 462.541 889.436 471.501 883.067 481.61L876.209 493.557L835.302 515.613C835.302 515.613 819.87 520.898 805.173 515.613C805.173 515.613 804.194 495.165 784.108 485.516C784.108 485.516 768.186 478.394 773.33 499.99L685.148 448.756C685.148 448.756 684.658 433.133 665.307 421.415C665.307 421.415 652.815 414.752 652.57 426.929C652.57 426.929 645.711 423.943 646.936 408.549C646.936 408.549 647.671 405.103 648.896 403.265V388.331C648.896 388.331 649.875 377.303 663.838 369.032C677.8 360.761 691.272 354.328 691.272 354.328C691.272 354.328 700.825 349.273 713.072 355.477L733.158 356.625C733.158 356.625 767.206 366.734 801.989 391.777L831.873 416.361Z" fill="#F4F3F4"/>
<path d="M648.651 388.331C648.651 388.331 649.63 377.303 663.593 369.032C677.555 360.761 691.027 354.328 691.027 354.328C691.027 354.328 700.58 349.273 712.827 355.477C712.827 355.477 687.598 355.936 659.918 383.047L687.598 382.587C687.598 382.587 734.873 403.035 752.754 420.726L774.8 456.567C774.8 456.567 784.842 468.744 799.049 479.313L648.651 388.331Z" fill="#D8D8D8"/>
<path d="M876.698 451.744L881.842 462.312C881.842 462.312 889.191 471.273 882.822 481.382L875.963 493.329L835.057 515.385C835.057 515.385 819.625 520.669 804.928 515.385C804.928 515.385 803.948 494.937 783.862 485.288C783.862 485.288 767.941 478.165 773.085 499.762L684.903 448.527C684.903 448.527 684.413 432.904 665.062 421.187C665.062 421.187 652.57 414.524 652.325 426.701C652.325 426.701 645.466 423.714 646.691 408.321C646.691 408.321 647.426 404.875 648.65 403.037V394.766L808.357 489.883C808.357 489.883 826.974 491.721 839.711 488.274C852.448 484.828 873.269 467.597 873.269 467.597L876.698 451.744Z" fill="#D8D8D8"/>
<path d="M802.479 501.367C802.479 501.367 824.769 510.098 846.08 498.84C867.39 487.582 875.229 482.527 875.229 482.527C875.229 482.527 883.312 477.013 885.027 470.58C885.027 470.58 884.537 466.675 881.597 462.539C881.597 462.539 883.802 469.661 873.024 477.932C862.246 486.203 848.039 493.096 848.039 493.096C848.039 493.096 825.014 503.205 807.623 498.61C807.623 498.61 803.948 497.461 802.234 496.772C802.234 496.772 794.15 481.379 779.698 481.149C779.698 481.149 792.191 482.757 802.479 501.367Z" fill="#F4F3F4"/>
<path d="M718.216 444.617C718.216 442.549 716.991 440.481 715.031 439.333L710.622 437.035C710.622 439.103 711.847 441.171 713.807 442.319L718.216 444.617Z" fill="#425053"/>
<path d="M831.383 409.696L827.219 412.683L831.628 416.359L832.362 415.44C833.832 414.062 834.322 411.994 833.587 410.156C833.587 409.467 832.362 409.007 831.383 409.696Z" fill="#D8D8D8"/>
<path d="M874.249 475.632C874.249 475.632 870.575 457.482 876.699 451.738L881.843 462.307C881.843 462.537 880.863 469.429 874.249 475.632Z" fill="white"/>
<path d="M839.711 494.935C839.711 494.935 833.097 489.191 827.463 487.812H813.256C810.317 487.812 808.112 489.88 808.112 492.637V493.786C808.112 496.543 810.317 498.611 813.256 498.611C820.115 498.611 832.607 498.381 839.711 494.935Z" fill="white"/>
<path d="M752.754 420.724L774.309 455.416C774.309 455.416 781.413 463.228 794.885 457.714C808.357 452.2 835.057 435.198 835.057 435.198C835.057 435.198 842.405 431.292 837.016 423.94C831.628 416.359 801.744 393.613 801.744 393.613C801.744 393.613 789.251 406.25 752.754 420.724Z" fill="#252C35"/>
<path d="M717.971 403.496L714.052 427.62L765.002 459.555C765.002 459.555 759.858 435.891 740.507 417.281L717.971 403.496Z" fill="#252C35"/>
<path d="M711.603 399.588L708.173 424.172L667.022 397.75C667.022 397.75 680.739 387.412 696.171 393.615L711.603 399.588Z" fill="#252C35"/>
<path d="M687.597 383.047H659.918C659.918 383.047 677.799 359.382 713.072 355.477L730.708 356.396C730.708 356.396 734.383 358.004 730.708 358.693C730.708 358.923 711.357 363.748 687.597 383.047Z" fill="#252C35"/>
<path d="M869.84 470.355L839.711 486.668C839.711 486.668 842.651 491.263 846.815 491.263C850.979 491.263 868.615 479.546 868.615 479.546C868.615 479.546 871.555 476.559 869.84 470.355Z" fill="#425053"/>
<path d="M764.021 450.824H758.877L753.488 453.351C752.754 453.811 752.264 454.5 752.264 455.19C752.264 456.568 753.733 457.717 755.203 457.257L760.347 455.649C760.347 455.649 761.572 454.96 760.837 453.122L764.756 453.351L764.021 450.824Z" fill="#D8D8D8"/>
<path d="M873.269 484.598V489.882L849.019 503.437V497.923L873.269 484.598Z" fill="white"/>
<path d="M795.673 521.322C801.839 518.419 802.951 508.803 798.156 499.845C793.362 490.886 784.477 485.977 778.311 488.88C772.145 491.783 771.033 501.399 775.827 510.358C780.622 519.316 789.507 524.225 795.673 521.322Z" fill="#425053"/>
<path d="M793.805 517.83C798.641 515.553 799.511 508.008 795.749 500.977C791.986 493.946 785.015 490.093 780.179 492.37C775.343 494.646 774.473 502.192 778.236 509.223C781.998 516.253 788.969 520.107 793.805 517.83Z" fill="#92979E"/>
<path d="M675.392 455.365C681.558 452.462 682.67 442.846 677.876 433.888C673.082 424.929 664.197 420.02 658.031 422.923C651.865 425.826 650.753 435.442 655.547 444.401C660.341 453.359 669.226 458.268 675.392 455.365Z" fill="#425053"/>
<path d="M673.387 452.108C678.102 449.888 678.972 442.573 675.331 435.769C671.69 428.965 664.916 425.249 660.201 427.469C655.485 429.689 654.615 437.004 658.256 443.808C661.897 450.612 668.672 454.328 673.387 452.108Z" fill="#92979E"/>
<path d="M754.959 424.173L752.754 420.497C789.252 406.253 801.744 393.387 801.744 393.387C801.744 393.387 831.873 416.132 837.017 423.714C838.731 426.241 839.221 428.309 838.731 429.917C831.138 424.863 801.009 407.631 754.959 424.173Z" fill="#576169"/>
<path d="M723.115 415.903L721.156 431.985L714.052 427.62L717.971 403.496L740.507 417.511C746.141 422.795 750.55 428.769 753.979 434.283L723.115 415.903Z" fill="#576169"/>
<path d="M692.741 400.048C692.741 400.048 685.148 396.142 673.39 401.886L667.022 397.75C667.022 397.75 680.739 387.412 696.171 393.615L711.603 399.818L710.378 409.238L692.741 400.048Z" fill="#576169"/>
<path d="M667.022 383.047C668.736 380.06 673.635 375.465 685.148 369.262C704.009 358.923 719.931 359.382 726.544 360.301C719.441 362.829 704.744 369.262 687.597 383.047H667.022Z" fill="#576169"/>
<path d="M738.547 520.207V359.382L509.274 262.656V421.644L738.547 520.207Z" fill="#E5E5E4"/>
<path d="M283.921 514.698L509.274 421.649V230.496L283.186 328.6L283.921 514.698Z" fill="#F4F3F4"/>
<path d="M393.169 281.269L627.34 153.527L757.653 344.68L738.547 355.019L570.022 298.73L415.459 314.123L393.169 281.269Z" fill="#2E3740"/>
<path d="M497.027 201.316L627.34 153.527L393.168 281.269L260.896 329.976L497.027 201.316Z" fill="#252C35"/>
<path d="M260.896 329.977V337.099L393.168 286.784L414.479 318.489L570.022 301.488L738.547 359.385L757.653 349.046V344.681L738.547 355.02L570.022 298.731L415.459 314.124L393.168 281.27L260.896 329.977Z" fill="#C2C1C1"/>
<path d="M283.186 328.598L273.878 332.274V509.182L283.921 514.696L283.186 328.598Z" fill="#E5E5E4"/>
<path d="M738.546 359.385L746.63 355.02V516.075L738.546 520.211V359.385Z" fill="#D8D8D8"/>
<path d="M273.878 509.184L509.274 634.857V646.805L273.878 522.739V509.184Z" fill="#C7CFDB"/>
<path d="M746.63 516.074V526.873L509.274 646.803V634.856L746.63 516.074Z" fill="#DAE2EA"/>
<path d="M283.92 514.698L509.274 421.648L738.546 520.212L509.274 634.858L283.92 514.698Z" fill="#EDEFF2"/>
<path d="M630.034 410.391V472.194L437.749 563.175L344.178 512.63" stroke="#25B4B3" stroke-width="1.88304" stroke-miterlimit="10"/>
<path d="M431.135 480.918L518.827 524.8" stroke="#25B4B3" stroke-width="1.88304" stroke-miterlimit="10"/>
<path d="M480.86 456.801L570.021 500.683" stroke="#25B4B3" stroke-width="1.88304" stroke-miterlimit="10"/>
<path d="M630.035 413.146V288.621" stroke="#25B4B3" stroke-width="1.88304" stroke-miterlimit="10"/>
<path d="M530.585 383.969L444.118 422.337V477.477L530.585 439.109V383.969Z" fill="#F4F3F4"/>
<path d="M422.317 411.076L444.118 422.334L530.585 383.966L509.274 375.465L422.317 411.076Z" fill="white"/>
<path d="M450.486 424.173L526.91 390.629V392.926L450.486 427.619V424.173Z" fill="#E5E5E4"/>
<path d="M450.486 430.145L526.91 396.602V399.129L450.486 433.591V430.145Z" fill="#E5E5E4"/>
<path d="M450.486 436.345L526.91 403.031V405.329L450.486 440.021V436.345Z" fill="#E5E5E4"/>
<path d="M424.277 373.168L381.656 390.859L420.602 411.996L467.143 390.629L424.277 373.168Z" fill="#CFCECE"/>
<path d="M467.143 390.633L420.602 412V494.94L467.143 473.573V390.633Z" fill="white"/>
<path d="M381.656 474.029L420.602 494.937V411.996L381.656 390.859V474.029Z" fill="#E5E5E4"/>
<path d="M383.37 390.63V382.129L421.092 401.428V410.848L383.37 390.63Z" fill="#252C35"/>
<path d="M421.093 410.846L464.449 390.628V382.816L421.093 402.575V410.846Z" fill="#576169"/>
<path d="M424.277 331.816L381.656 349.507L420.602 370.644L467.143 349.048L424.277 331.816Z" fill="white"/>
<path d="M467.143 349.047L420.602 370.643V405.566L467.143 384.199V349.047Z" fill="white"/>
<path d="M381.656 384.43L420.602 405.567V370.645L381.656 349.508V384.43Z" fill="#E5E5E4"/>
<path d="M380.431 426.473C380.431 426.932 380.431 427.162 380.431 427.621C380.431 428.081 380.431 428.311 380.186 428.77C380.186 429 379.941 429.459 379.941 429.689C379.941 430.149 379.696 430.378 379.696 430.838C379.696 431.068 379.451 431.527 379.206 431.757C378.961 432.216 378.961 432.446 378.716 432.906C378.471 433.135 378.471 433.365 378.226 433.825C377.981 434.284 377.737 434.744 377.247 434.973C377.002 435.433 376.512 435.663 376.267 436.122L376.022 436.352C375.532 436.811 375.042 437.271 374.307 437.96C373.817 438.19 373.572 438.649 373.083 438.879C372.838 439.109 372.348 439.339 372.103 439.568C371.613 439.798 371.123 440.258 370.633 440.487C370.143 440.717 369.653 441.177 369.163 441.406C367.939 442.096 366.714 442.555 365.489 443.244C365.244 443.474 364.754 443.474 364.509 443.704C363.529 444.163 362.55 444.393 361.57 444.853C361.08 445.082 360.835 445.082 360.345 445.312C359.61 445.542 359.12 445.772 358.386 445.772C357.896 446.001 357.406 446.001 356.916 446.231C356.181 446.461 355.446 446.461 354.711 446.691C354.221 446.691 353.732 446.92 353.242 446.92C351.772 447.15 350.302 447.38 348.833 447.38C348.343 447.38 347.853 447.38 347.363 447.38C346.383 447.38 345.648 447.61 344.668 447.61C344.179 447.61 343.444 447.61 342.954 447.61C342.219 447.61 341.484 447.61 340.749 447.61C340.259 447.61 339.524 447.61 339.035 447.61C338.3 447.61 337.81 447.61 337.075 447.61C336.585 447.61 335.85 447.61 335.36 447.38C334.625 447.38 334.136 447.15 333.401 447.15C332.911 447.15 332.176 446.92 331.686 446.92C330.951 446.92 330.216 446.691 329.726 446.691C329.237 446.691 328.747 446.461 328.012 446.461C327.277 446.231 326.297 446.002 325.562 446.002C325.072 446.002 324.583 445.772 324.338 445.772C322.868 445.312 321.643 444.853 320.173 444.393C319.439 444.163 318.949 443.934 318.214 443.704C317.969 443.474 317.479 443.474 317.234 443.244C316.254 442.785 315.274 442.325 314.295 441.866C306.701 437.73 302.782 432.446 302.782 426.932L302.537 505.048C302.537 510.562 306.211 515.846 314.05 519.981C315.03 520.441 316.009 520.9 316.989 521.36C317.234 521.59 317.724 521.59 317.969 521.819C318.459 522.049 319.194 522.279 319.684 522.509H319.929C321.153 522.968 322.623 523.428 324.093 523.887H324.338C324.583 523.887 325.072 524.117 325.317 524.117C326.052 524.347 326.787 524.576 327.767 524.576C328.012 524.576 328.257 524.576 328.502 524.806C328.747 524.806 329.237 524.806 329.482 525.036C330.216 525.266 330.951 525.266 331.441 525.266C331.686 525.266 331.931 525.266 332.176 525.495C332.421 525.495 332.666 525.495 333.156 525.495C333.891 525.495 334.381 525.725 335.115 525.725C335.36 525.725 335.85 525.725 336.095 525.725C336.34 525.725 336.585 525.725 337.075 525.725C337.81 525.725 338.3 525.725 339.035 525.725C339.28 525.725 339.769 525.725 340.014 525.725C340.259 525.725 340.504 525.725 340.749 525.725C341.484 525.725 342.219 525.725 342.954 525.725C343.199 525.725 343.689 525.725 343.934 525.725C344.178 525.725 344.423 525.725 344.668 525.725C345.648 525.725 346.383 525.725 347.363 525.495C347.608 525.495 348.098 525.495 348.343 525.495H348.588C350.057 525.266 351.527 525.266 352.997 525.036H353.242C353.732 525.036 353.976 524.806 354.466 524.806C355.201 524.576 355.936 524.576 356.671 524.347C357.161 524.117 357.651 524.117 358.141 523.887C358.875 523.657 359.365 523.657 360.1 523.428C360.345 523.428 360.345 523.428 360.59 523.198C360.835 523.198 361.08 522.968 361.325 522.968C362.305 522.738 363.285 522.279 364.264 521.819C364.754 521.59 364.999 521.59 365.244 521.36C366.469 520.9 367.694 520.211 368.918 519.522C369.163 519.522 369.163 519.292 369.408 519.292C369.653 519.062 370.143 518.833 370.388 518.603C370.878 518.373 371.368 518.143 371.858 517.684C372.348 517.454 372.593 517.224 372.838 516.995C373.327 516.765 373.572 516.305 374.062 516.076L374.307 515.846C374.797 515.386 375.287 514.927 375.777 514.467L376.022 514.238C376.267 514.008 376.512 513.778 376.757 513.319C376.757 513.089 377.002 513.089 377.002 512.859C377.247 512.4 377.737 511.94 377.981 511.481C377.981 511.251 378.226 511.021 378.471 511.021C378.471 511.021 378.471 510.791 378.716 510.791C378.961 510.332 379.206 510.102 379.206 509.643C379.206 509.413 379.451 509.183 379.451 508.953V508.724C379.696 508.264 379.696 508.034 379.696 507.575C379.696 507.345 379.941 507.115 379.941 506.886V506.656C379.941 506.196 379.941 505.967 380.186 505.507C380.186 505.277 380.186 505.048 380.186 504.818V504.588L380.431 426.473Z" fill="white"/>
<path d="M369.163 411.535C384.35 419.806 384.35 432.902 369.408 441.173C354.467 449.444 329.972 449.444 314.785 441.173C299.598 432.902 299.598 419.806 314.54 411.535C329.482 403.494 353.977 403.494 369.163 411.535Z" fill="#808B91"/>
<path d="M380.431 404.879C380.431 405.338 380.431 405.568 380.431 406.028C380.431 406.487 380.431 406.717 380.186 407.176C380.186 407.406 379.941 407.866 379.941 408.095C379.941 408.555 379.696 408.785 379.696 409.244C379.696 409.474 379.451 409.933 379.206 410.163C378.962 410.623 378.962 410.852 378.717 411.312C378.472 411.542 378.472 411.771 378.227 412.231C377.982 412.69 377.737 413.15 377.247 413.38C377.002 413.839 376.512 414.069 376.267 414.528L376.022 414.758C375.532 415.218 375.042 415.677 374.308 416.366C373.818 416.596 373.573 417.056 373.083 417.285C372.838 417.515 372.348 417.745 372.103 417.975C371.613 418.204 371.123 418.664 370.633 418.894C370.143 419.123 369.653 419.583 369.164 419.813C367.939 420.502 366.714 420.961 365.489 421.651C365.244 421.88 364.754 421.88 364.51 422.11C363.53 422.57 362.55 422.8 361.57 423.259C361.08 423.489 360.835 423.489 360.345 423.718C359.611 423.948 359.121 424.178 358.386 424.178C357.896 424.408 357.406 424.408 356.916 424.638C356.181 424.867 355.446 424.867 354.712 425.097C354.222 425.097 353.732 425.327 353.242 425.327C351.772 425.557 350.302 425.786 348.833 425.786C348.343 425.786 347.853 425.786 347.363 425.786C346.383 425.786 345.648 426.016 344.669 426.016C344.179 426.016 343.444 426.016 342.954 426.016C342.219 426.016 341.484 426.016 340.749 426.016C340.26 426.016 339.525 426.016 339.035 426.016C338.3 426.016 337.81 426.016 337.075 426.016C336.585 426.016 335.85 426.016 335.361 425.786C334.626 425.786 334.136 425.557 333.401 425.557C332.911 425.557 332.176 425.327 331.686 425.327C330.951 425.327 330.217 425.097 329.727 425.097C329.237 425.097 328.747 424.867 328.012 424.867C327.277 424.638 326.297 424.408 325.563 424.408C325.073 424.408 324.583 424.178 324.338 424.178C322.868 423.719 321.643 423.259 320.174 422.799C319.439 422.57 318.949 422.34 318.214 422.11C317.969 421.88 317.479 421.88 317.234 421.651C316.255 421.191 315.275 420.732 314.295 420.272C306.701 416.137 302.782 410.852 302.782 405.338L302.537 427.395C302.537 432.909 306.212 438.193 314.05 442.328C315.03 442.788 316.01 443.247 316.989 443.707C317.234 443.937 317.724 443.937 317.969 444.166C318.459 444.396 319.194 444.626 319.684 444.856H319.929C321.153 445.315 322.623 445.775 324.093 446.234H324.338C324.583 446.234 325.073 446.464 325.318 446.464C326.052 446.694 326.787 446.923 327.767 446.923C328.012 446.923 328.257 446.923 328.502 447.153C328.747 447.153 329.237 447.153 329.482 447.383C330.217 447.613 330.951 447.613 331.441 447.613C331.686 447.613 331.931 447.613 332.176 447.842C332.421 447.842 332.666 447.842 333.156 447.842C333.891 447.842 334.381 448.072 335.116 448.072C335.361 448.072 335.85 448.072 336.095 448.072C336.34 448.072 336.585 448.072 337.075 448.072C337.81 448.072 338.3 448.072 339.035 448.072C339.28 448.072 339.77 448.072 340.015 448.072C340.26 448.072 340.504 448.072 340.749 448.072C341.484 448.072 342.219 448.072 342.954 448.072C343.199 448.072 343.689 448.072 343.934 448.072C344.179 448.072 344.424 448.072 344.669 448.072C345.648 448.072 346.383 448.072 347.363 447.842C347.608 447.842 348.098 447.842 348.343 447.842H348.588C350.058 447.613 351.527 447.613 352.997 447.383H353.242C353.732 447.383 353.977 447.153 354.467 447.153C355.201 446.923 355.936 446.923 356.671 446.694C357.161 446.464 357.651 446.464 358.141 446.234C358.876 446.004 359.366 446.004 360.1 445.775C360.345 445.775 360.345 445.775 360.59 445.545C360.835 445.545 361.08 445.315 361.325 445.315C362.305 445.085 363.285 444.626 364.265 444.166C364.754 443.937 364.999 443.937 365.244 443.707C366.469 443.247 367.694 442.558 368.919 441.869C369.164 441.869 369.164 441.639 369.409 441.639C369.653 441.409 370.143 441.18 370.388 440.95C370.878 440.72 371.368 440.49 371.858 440.031C372.348 439.801 372.593 439.571 372.838 439.342C373.328 439.112 373.573 438.652 374.063 438.423L374.308 438.193C374.797 437.733 375.287 437.274 375.777 436.814L376.022 436.585C376.267 436.355 376.512 436.125 376.757 435.666C376.757 435.436 377.002 435.436 377.002 435.206C377.247 434.747 377.737 434.287 377.982 433.828C377.982 433.598 378.227 433.368 378.472 433.368C378.472 433.368 378.472 433.138 378.717 433.138C378.962 432.679 379.206 432.449 379.206 431.99C379.206 431.76 379.451 431.53 379.451 431.3V431.071C379.696 430.611 379.696 430.381 379.696 429.922C379.696 429.692 379.941 429.462 379.941 429.233V429.003C379.941 428.543 379.941 428.314 380.186 427.854C380.186 427.624 380.186 427.395 380.186 427.165V426.935L380.431 404.879Z" fill="#8294A3"/>
<path d="M369.163 389.945C384.35 398.217 384.35 411.312 369.408 419.583C354.467 427.854 329.972 427.854 314.785 419.583C299.598 411.312 299.598 398.217 314.54 389.945C329.482 381.674 353.977 381.674 369.163 389.945Z" fill="#9BABBE"/>
<path d="M365.489 396.604C365.489 396.833 365.489 397.063 365.489 397.293C365.489 397.523 365.489 397.752 365.244 397.752C365.244 397.982 365.244 398.212 364.999 398.442C364.999 398.671 364.754 398.901 364.754 398.901C364.754 399.131 364.509 399.361 364.509 399.59C364.509 399.82 364.265 399.82 364.265 400.05C364.02 400.28 364.02 400.509 363.775 400.739C363.775 400.969 363.53 400.969 363.285 401.199C363.04 401.428 362.55 401.888 362.305 402.118C362.06 402.347 362.06 402.347 361.815 402.577C361.57 402.807 361.325 403.037 361.08 403.037C360.835 403.266 360.59 403.266 360.345 403.496C360.1 403.726 359.855 403.956 359.366 403.956C359.121 404.185 358.876 404.415 358.386 404.415C357.406 404.875 356.181 405.334 355.201 405.794C354.956 405.794 354.711 406.023 354.222 406.023C353.487 406.253 352.752 406.483 352.017 406.713C351.282 406.942 350.547 407.172 349.568 407.172C348.588 407.402 347.608 407.632 346.628 407.632C346.383 407.632 346.138 407.632 345.893 407.632C344.669 407.861 343.199 407.861 341.974 407.861C341.729 407.861 341.484 407.861 341.239 407.861C340.015 407.861 338.545 407.861 337.32 407.632C337.075 407.632 336.83 407.632 336.83 407.632C335.605 407.402 334.381 407.172 332.911 406.942C332.666 406.942 332.421 406.942 332.176 406.713C330.951 406.483 329.972 406.023 328.992 405.794C328.747 405.794 328.502 405.564 328.502 405.564C327.277 405.104 326.052 404.645 324.828 403.956C321.398 402.118 319.194 399.82 318.214 397.293C317.969 396.374 317.724 395.685 317.724 394.766V400.969C317.724 404.185 319.929 407.632 324.583 410.159C325.562 410.848 326.787 411.308 328.012 411.767H328.257C328.502 411.767 328.747 411.997 328.747 411.997C329.482 412.227 330.217 412.456 330.951 412.686C331.441 412.686 331.686 412.916 332.176 412.916C332.421 412.916 332.666 412.916 332.911 413.146C333.156 413.146 333.401 413.146 333.401 413.375C334.136 413.605 334.871 413.605 335.85 413.835C336.095 413.835 336.34 413.835 336.585 413.835C336.83 413.835 337.075 413.835 337.075 413.835C337.32 413.835 337.565 413.835 338.055 413.835C338.79 413.835 339.525 413.835 340.504 414.065C340.749 414.065 340.994 414.065 341.239 414.065C341.484 414.065 341.729 414.065 341.974 414.065C342.219 414.065 342.709 414.065 342.954 414.065C343.934 414.065 344.669 414.065 345.648 413.835H345.893C346.138 413.835 346.383 413.835 346.628 413.835C347.363 413.835 348.098 413.605 348.588 413.605C348.833 413.605 349.078 413.375 349.323 413.375C350.057 413.146 350.792 412.916 351.772 412.916C352.262 412.916 352.507 412.686 352.997 412.686C353.242 412.686 353.732 412.456 353.977 412.456C354.222 412.456 354.711 412.227 354.956 412.227C356.181 411.767 357.161 411.308 358.141 410.848C358.141 410.848 358.386 410.848 358.386 410.618C358.631 410.389 358.876 410.389 358.876 410.159C359.121 409.929 359.366 409.699 359.61 409.699C359.855 409.47 360.1 409.47 360.345 409.24C360.59 409.01 360.835 408.78 361.08 408.78C361.08 408.78 361.08 408.78 361.325 408.551L361.57 408.321C361.815 408.091 362.305 407.632 362.55 407.402L362.795 407.172C362.795 407.172 362.795 406.942 363.04 406.942C363.285 406.713 363.53 406.483 363.53 406.253L363.775 406.023C363.775 406.023 363.775 406.023 363.775 405.794C364.02 405.564 364.02 405.334 364.02 405.104C364.02 404.875 364.265 404.875 364.265 404.645C364.265 404.645 364.265 404.645 364.265 404.415C364.265 404.185 364.509 403.956 364.509 403.726C364.509 403.496 364.509 403.496 364.754 403.266C364.754 403.266 364.754 403.266 364.754 403.037C364.754 402.807 364.754 402.577 364.754 402.347C364.754 402.118 364.754 402.118 364.754 401.888V401.658V395.455C365.489 396.144 365.489 396.374 365.489 396.604Z" fill="#CAC9C9"/>
<path d="M365.564 396.12C365.585 389.014 354.965 383.225 341.842 383.19C328.72 383.156 318.065 388.888 318.044 395.993C318.022 403.099 328.642 408.888 341.765 408.923C354.887 408.957 365.542 403.225 365.564 396.12Z" fill="#F4F3F4"/>
<path d="M327.522 456.803L321.398 467.831L331.686 473.345L313.07 486.671L316.499 471.277L309.151 467.142L317.234 451.289L327.522 456.803Z" fill="#BBBBBB"/>
<path d="M620.481 188.219L433.83 283.336L508.05 391.089L693.231 292.526L620.481 188.219Z" fill="#181F24"/>
<path d="M447.792 269.783L629.3 177.883L700.825 278.054L518.828 374.78L447.792 269.783Z" fill="#29328A"/>
<path d="M518.827 374.782L488.454 329.981L632.239 182.48L683.923 254.393L620.481 320.791L518.827 374.782Z" fill="#464898"/>
<path d="M507.805 237.387L444.363 269.782L518.582 377.535L581.534 343.991L507.805 237.387ZM556.06 313.664L554.59 319.408L535.239 329.517L528.87 328.138L517.113 310.907L518.582 305.163L537.933 295.054L544.302 296.433L556.06 313.664ZM538.423 287.932L536.954 293.446L517.603 303.555L511.234 302.177L499.476 284.945L500.946 279.431L520.297 269.552L526.666 270.93L538.423 287.932ZM483.065 253.929L502.416 244.05L508.784 245.428L520.542 262.43L519.072 267.944L499.721 277.823L493.353 276.444L481.595 259.443L483.065 253.929ZM452.201 274.377L453.916 268.633L473.512 258.754L479.88 260.132L491.638 277.134L490.168 282.648L470.572 292.757L463.959 291.378L452.201 274.377ZM470.082 300.339L471.797 294.595L491.393 284.486L497.762 285.864L509.519 303.096L508.05 308.839L488.454 318.948L481.84 317.57L470.082 300.339ZM487.719 326.071L489.433 320.327L509.029 310.218L515.398 311.596L527.156 328.828L525.686 334.571L506.09 344.91L499.476 343.532L487.719 326.071ZM543.567 360.304L524.216 370.642L517.603 369.264L505.6 352.033L507.07 346.289L526.666 335.95L533.034 337.328L545.037 354.56L543.567 360.304ZM553.12 355.249L546.752 353.871L534.749 336.639L536.219 330.895L555.57 320.786L561.938 322.165L573.696 339.396L572.226 345.14L553.12 355.249Z" fill="white"/>
<path d="M570.022 205.684L507.805 237.389L581.535 343.994L643.262 311.139L570.022 205.684ZM618.032 281.042L616.562 286.556L597.701 296.435L591.333 295.057L579.575 278.055L581.045 272.541L600.151 262.662L606.52 264.04L618.032 281.042ZM600.396 255.769L598.926 261.283L579.82 271.163L573.451 269.784L561.694 252.783L563.163 247.269L582.27 237.389L588.638 238.768L600.396 255.769ZM545.772 221.996L564.878 212.346L571.247 213.725L583.004 230.497L581.535 236.011L562.429 245.89L556.06 244.512L544.302 227.51L545.772 221.996ZM515.398 242.214L516.868 236.7L535.974 226.821L542.343 228.199L554.1 245.201L552.631 250.715L533.525 260.594L527.156 259.216L515.398 242.214ZM533.035 267.716L534.504 262.202L553.61 252.323L559.979 253.702L571.737 270.703L570.267 276.217L551.161 286.097L544.792 284.718L533.035 267.716ZM550.916 293.219L552.386 287.705L571.492 277.825L577.86 279.204L589.618 296.206L588.148 301.72L569.042 311.829L562.674 310.45L550.916 293.219ZM605.785 327.222L586.679 337.331L580.31 335.953L568.552 318.951L570.022 313.437L589.128 303.328L595.497 304.706L607.254 321.708L605.785 327.222ZM615.338 322.167L608.969 320.789L597.211 303.787L598.681 298.273L617.542 288.394L623.911 289.773L635.669 306.774L634.199 312.288L615.338 322.167Z" fill="white"/>
<path d="M631.014 174.668L570.022 205.684L643.262 311.14L703.764 278.975L631.014 174.668ZM678.779 249.337L677.31 254.851L658.693 264.73L652.325 263.352L640.567 246.58L642.037 241.066L660.653 231.417L667.022 232.795L678.779 249.337ZM661.388 224.064L659.918 229.578L641.302 239.228L634.933 237.85L623.176 221.078L624.645 215.564L643.262 205.914L649.63 207.293L661.388 224.064ZM607.254 190.521L625.87 180.871L632.239 182.25L643.996 199.022L642.527 204.536L623.911 214.185L617.542 212.807L605.784 196.035L607.254 190.521ZM577.615 210.509L579.085 204.995L597.946 195.346L604.315 196.724L616.072 213.496L614.603 219.01L595.741 228.659L589.373 227.281L577.615 210.509ZM595.252 235.552L596.721 230.038L615.582 220.388L621.951 221.767L633.709 238.539L632.239 244.053L613.378 253.932L607.009 252.554L595.252 235.552ZM612.643 260.825L614.113 255.311L632.974 245.431L639.342 246.81L651.1 263.582L649.63 269.096L630.769 278.975L624.4 277.596L612.643 260.825ZM667.022 294.598L648.406 304.477L642.037 303.099L630.279 286.097L631.749 280.583L650.61 270.704L656.979 272.082L668.736 288.854L667.022 294.598ZM676.33 289.773L669.961 288.395L658.203 271.623L659.673 266.109L678.289 256.23L684.658 257.608L696.416 274.38L694.946 279.894L676.33 289.773Z" fill="white"/>
<path d="M444.363 269.781L440.688 274.836L514.663 380.751L518.582 377.535L444.363 269.781Z" fill="#C2C1C1"/>
<path d="M514.663 380.756L701.07 282.193L704.009 278.977L518.583 377.54L514.663 380.756Z" fill="#C2C1C1"/>
<path d="M616.072 477.477L724.094 527.333V488.964" stroke="#25B4B3" stroke-width="1.88304" stroke-miterlimit="10"/>
<path d="M730.708 501.827V538.817C730.708 541.804 732.423 544.561 735.362 546.169L742.466 549.616C745.16 550.994 748.344 550.994 750.794 549.616L767.206 541.115C773.819 537.669 775.534 529.398 770.635 523.884L733.647 481.609" stroke="#252C35" stroke-width="1.18999" stroke-miterlimit="10"/>
<path d="M725.074 509.871L713.562 503.208C712.092 502.289 711.112 500.911 711.112 499.073V493.559L725.074 500.451V509.871Z" fill="#F4F3F4"/>
<path d="M732.178 441.177L744.18 447.38L722.135 464.382L710.867 458.868V457.26C710.867 452.894 713.317 448.759 717.481 446.461L727.279 441.177C728.993 440.488 730.708 440.488 732.178 441.177Z" fill="#F4F3F4"/>
<path d="M722.38 463.466L711.112 458.871V495.631L722.38 501.835V463.466Z" fill="#F4F3F4"/>
<path d="M722.38 463.466L722.625 505.74C722.625 509.416 726.789 511.713 730.218 509.875L744.425 502.293C745.895 501.374 746.875 499.996 746.875 498.158L746.63 451.289C746.63 447.613 742.465 445.545 739.281 447.153L729.238 452.667C724.829 454.735 722.135 458.87 722.38 463.466Z" fill="white"/>
<path d="M727.768 471.052C727.768 471.511 728.258 471.971 728.748 471.511L729.483 471.052L729.728 470.133H729.483C728.993 470.133 728.748 470.133 728.748 469.903V469.673C728.748 469.673 728.748 469.444 729.238 469.214L730.463 468.525L731.442 465.997C731.442 465.768 731.687 465.308 731.932 465.308C732.912 464.619 733.647 464.159 734.627 463.7L736.341 462.781C737.321 462.321 738.056 461.862 739.036 461.402C739.281 461.402 739.526 461.402 739.526 461.632L740.506 463.011L741.73 462.321C742.22 462.092 742.22 462.321 742.22 462.321V462.551C742.22 463.011 741.975 463.24 741.485 463.47L741.24 463.7L741.73 464.849V466.227L741.485 466.687C740.261 468.754 736.341 470.822 735.607 471.282C734.872 471.741 730.953 473.809 729.728 473.12L729.483 472.89V471.511L728.748 471.971C728.013 472.43 727.278 471.971 727.278 471.282V469.903L727.768 469.673V471.052ZM735.362 466.457C736.586 465.768 737.811 465.078 739.036 464.619L739.771 464.159C739.771 464.159 740.261 463.93 740.016 463.7L739.771 463.24L739.526 462.781L739.036 462.092C737.811 462.551 736.586 463.011 735.607 463.7C734.382 464.389 733.157 465.078 732.177 465.768L731.687 466.916L731.442 467.835L731.198 468.525C730.953 468.984 731.442 468.754 731.442 468.754L732.177 468.295L732.667 467.835C733.647 467.606 734.627 466.916 735.362 466.457ZM740.016 467.376C740.261 467.146 740.506 466.916 740.506 466.457V465.768L739.281 466.457L738.546 468.065L740.016 467.376ZM730.708 471.741C730.708 471.971 730.953 472.201 731.198 471.971L732.667 471.282L731.932 470.363L730.708 471.052V471.741ZM733.892 470.822L737.321 468.984V468.525L733.892 470.363V470.822ZM733.892 470.133L737.321 468.295V467.835L733.892 469.673V470.133Z" fill="#BBBBBB"/>
<path d="M734.381 458.185L735.116 459.563L733.892 460.252L736.341 462.09L735.851 460.023L736.831 459.563L735.851 457.266L734.381 458.185Z" fill="#BBBBBB"/>
<path d="M729.239 474.034V475.183C729.239 475.643 729.483 475.872 729.973 475.643L731.443 474.953C731.933 474.724 732.178 474.264 732.178 473.805C731.198 474.034 729.973 474.264 729.239 474.034Z" fill="#BBBBBB"/>
<path d="M741.731 467.141C740.996 468.06 739.771 469.208 738.791 470.127C738.791 470.587 739.281 470.587 739.526 470.357L740.996 469.668C741.486 469.438 741.731 468.749 741.731 468.289V467.141Z" fill="#BBBBBB"/>
<path d="M509.275 558.579L567.818 527.562V605.448L509.275 634.856V558.579Z" fill="white"/>
<path d="M419.133 510.562L509.275 558.581V634.858L419.133 586.84V510.562Z" fill="#E5E5E4"/>
<path d="M477.676 479.547L567.818 527.565L509.275 558.581L419.133 510.563L477.676 479.547Z" fill="#F4F3F4"/>
<path d="M446.692 588.084C454.633 587.323 459.798 575.04 458.229 560.65C456.661 546.26 448.953 535.212 441.013 535.973C433.072 536.734 427.907 549.017 429.476 563.407C431.044 577.797 438.752 588.845 446.692 588.084Z" fill="#CFCECE"/>
<path d="M449.752 585.919C441.668 585.919 434.32 574.202 433.095 559.957C432.36 549.389 435.055 540.428 439.709 536.293C432.85 538.131 428.196 548.929 429.421 562.025C430.646 576.27 437.994 587.987 446.077 587.987C448.282 587.987 450.242 587.068 451.956 585.689C450.976 585.919 450.242 585.919 449.752 585.919Z" fill="#C2C1C1"/>
<path d="M444.425 567.28C446.04 567.125 447.093 564.646 446.776 561.743C446.46 558.84 444.894 556.612 443.279 556.766C441.664 556.921 440.612 559.4 440.928 562.304C441.244 565.207 442.81 567.435 444.425 567.28Z" fill="#F4F3F4"/>
<path d="M443.139 562.486L436.525 542.038C436.525 542.038 438.484 536.064 445.343 538.362L443.873 562.026L443.139 562.486Z" fill="#F4F3F4"/>
<path d="M445.343 562.949L457.591 565.017C457.591 565.017 457.346 576.045 453.671 582.248L444.363 564.328L445.343 562.949Z" fill="#F4F3F4"/>
<path d="M441.914 562.027L432.85 564.784C432.85 564.784 431.871 570.298 436.77 577.421L442.893 563.636L441.914 562.027Z" fill="#F4F3F4"/>
<path d="M486.378 610.592C494.318 609.83 499.483 597.548 497.915 583.158C496.346 568.768 488.638 557.719 480.698 558.481C472.758 559.242 467.593 571.525 469.161 585.915C470.73 600.305 478.438 611.353 486.378 610.592Z" fill="#CFCECE"/>
<path d="M489.189 608.435C481.106 608.435 473.757 596.718 472.532 582.473C471.797 571.904 474.492 562.944 479.146 558.809C472.287 560.647 467.633 571.445 468.858 584.541C470.083 598.785 477.431 610.503 485.515 610.503C487.719 610.503 489.679 609.584 491.393 608.205C490.659 608.435 489.924 608.435 489.189 608.435Z" fill="#C2C1C1"/>
<path d="M484.111 589.788C485.726 589.633 486.778 587.154 486.462 584.251C486.145 581.347 484.58 579.119 482.965 579.274C481.35 579.429 480.297 581.908 480.614 584.811C480.93 587.715 482.496 589.943 484.111 589.788Z" fill="#F4F3F4"/>
<path d="M482.82 585.001L476.207 564.554C476.207 564.554 478.166 558.58 485.025 560.878L483.555 584.542L482.82 585.001Z" fill="#F4F3F4"/>
<path d="M485.025 585.23L497.272 587.298C497.272 587.298 497.027 598.326 493.353 604.53L484.045 586.609L485.025 585.23Z" fill="#F4F3F4"/>
<path d="M481.595 584.539L472.532 587.296C472.532 587.296 471.552 592.81 476.451 599.932L482.575 586.147L481.595 584.539Z" fill="#F4F3F4"/>
<path d="M516.868 564.324L560.224 541.578V545.714L516.868 568.689V564.324Z" fill="#E5E5E4"/>
<path d="M516.868 572.139L560.224 549.164V553.529L516.868 576.504V572.139Z" fill="#E5E5E4"/>
<path d="M516.868 580.409L560.224 557.434V561.799L516.868 584.774V580.409Z" fill="#E5E5E4"/>
</g>
<path d="M815.15 189.231C815.15 187.892 812.294 186.773 808.725 186.773C805.156 186.773 802.301 187.871 802.301 189.231V198.068C802.301 199.407 805.156 200.525 808.725 200.525C812.294 200.525 815.15 199.427 815.15 198.068V189.231Z" fill="#AEAEAE"/>
<path d="M973.607 125.934C973.607 124.595 970.752 123.477 967.183 123.477C963.614 123.477 960.759 124.581 960.759 125.934V134.778C960.759 136.117 963.614 137.235 967.183 137.235C970.752 137.235 973.607 136.13 973.607 134.778V125.934Z" fill="#AEAEAE"/>
<path d="M956.512 314.704L954.092 313.452L946.29 279.602L948.71 280.854L956.512 314.704Z" fill="#7D7D7D"/>
<path d="M947.282 274.78L944.863 273.528L937.147 240.059L939.566 241.311L947.282 274.78Z" fill="#7D7D7D"/>
<path d="M919.23 270.342L916.81 269.09L944.863 273.529L947.282 274.781L919.23 270.342Z" fill="#AFAFAF"/>
<path d="M914.911 269.685L912.491 268.433L934.926 236.336L937.346 237.588L914.911 269.685Z" fill="#C1C1C1"/>
<path d="M887.237 309.252L884.817 308L908.801 273.688L911.221 274.94L887.237 309.252Z" fill="#C1C1C1"/>
<path d="M888.679 265.533L886.26 264.281L912.492 268.432L914.912 269.684L888.679 265.533Z" fill="#AFAFAF"/>
<path d="M912.806 218.299L910.386 217.047L934.712 229.567L937.132 230.819L912.806 218.299Z" fill="#979797"/>
<path d="M937.132 230.819L934.712 229.567L925.154 188.07L927.574 189.322L937.132 230.819Z" fill="#7D7D7D"/>
<path d="M887.523 259.3L885.103 258.048L904.226 220.582L906.646 221.834L887.523 259.3Z" fill="#B5B5B5"/>
<path d="M909.336 216.532L906.909 215.28L923.241 183.324L925.661 184.576L909.336 216.532Z" fill="#B5B5B5"/>
<path d="M888.572 205.869L886.152 204.617L906.909 215.283L909.336 216.535L888.572 205.869Z" fill="#979797"/>
<path d="M925.661 184.577L923.241 183.325L901.934 167.879L904.354 169.131L925.661 184.577Z" fill="#7A7A7A"/>
<path d="M924.605 176.485L922.185 175.233L913.976 139.902L916.396 141.154L924.605 176.485Z" fill="#7D7D7D"/>
<path d="M887.908 197.55L885.488 196.298L898.737 165.527L901.156 166.779L887.908 197.55Z" fill="#AEAEAE"/>
<path d="M903.526 161.237L901.106 159.985L911.649 135.527L914.069 136.779L903.526 161.237Z" fill="#AEAEAE"/>
<path d="M901.156 166.78L898.737 165.528L885.717 156.121L888.137 157.373L901.156 166.78Z" fill="#7A7A7A"/>
<path d="M912.87 125.774L910.45 124.522L906.56 107.73L908.987 108.982L912.87 125.774Z" fill="#7D7D7D"/>
<path d="M902.627 120.951L900.207 119.699L910.45 124.52L912.87 125.772L902.627 120.951Z" fill="#999999"/>
<path d="M889.678 145.505L887.259 144.253L910.3 131.023L912.72 132.275L889.678 145.505Z" fill="#D2D2D2"/>
<path d="M899.122 119.305L896.702 118.053L902.463 107.133L904.882 108.385L899.122 119.305Z" fill="#B6B6B6"/>
<path d="M888.258 139.903L885.838 138.651L893.926 123.312L896.345 124.564L888.258 139.903Z" fill="#B6B6B6"/>
<path d="M891.855 115.865L889.435 114.613L896.702 118.055L899.122 119.307L891.855 115.865Z" fill="#999999"/>
<path d="M891.213 110.958L888.793 109.706L902.098 102.066L904.518 103.318L891.213 110.958Z" fill="#D2D2D2"/>
<path d="M910.985 99.9368L888.201 90.2891L885.01 109.444L883.775 154.221L882.583 356.489L886.966 354.635L887.209 316.164L915.54 275.645L948.71 280.854L956.512 314.705L960.795 311.578L919.673 133.56L910.985 99.9368ZM888.679 265.535L910.093 223.624L937.361 237.59L914.926 269.686L888.693 265.535H888.679ZM904.397 169.125L925.704 184.571L909.379 216.527L888.615 205.861L904.397 169.125V169.125ZM887.858 212.148L906.688 221.829L887.565 259.322L887.858 212.175V212.148ZM937.175 230.841L912.848 218.321L927.617 189.344L937.175 230.854V230.841ZM919.273 270.356L939.609 241.326L947.325 274.802L919.273 270.363V270.356ZM887.28 309.275L887.53 271.233L911.264 274.962L887.28 309.275ZM888.179 157.395L901.199 166.802L887.951 197.599L888.179 157.428V157.395ZM916.439 141.206L924.648 176.536L906.803 163.615L916.432 141.206H916.439ZM914.105 136.834L903.562 161.291L889.414 151.008L914.105 136.834ZM912.756 132.328L889.714 145.558L899.85 126.242L912.699 132.268L912.756 132.328ZM912.848 125.767L902.605 120.946L908.965 108.975L912.848 125.767ZM888.358 120.806L896.324 124.555L888.236 139.894L888.358 120.806ZM904.497 103.311L891.192 110.95L891.427 95.5916L904.497 103.311ZM891.834 115.858L904.861 108.379L899.101 119.299L891.834 115.858Z" fill="#BDBDBD"/>
<path d="M826.228 330.683L828.162 328.922L834.729 292.406L832.795 294.167L826.228 330.683Z" fill="#7D7D7D"/>
<path d="M833.993 287.606L835.935 285.845L842.431 249.738L840.496 251.499L833.993 287.606Z" fill="#7D7D7D"/>
<path d="M856.314 277.629L858.249 275.875L835.935 285.837L833.994 287.598L856.314 277.629Z" fill="#AFAFAF"/>
<path d="M859.747 276.129L861.682 274.368L844.229 245.465L842.295 247.226L859.747 276.129Z" fill="#C1C1C1"/>
<path d="M881.284 311.767L883.218 310.007L864.559 279.102L862.618 280.862L881.284 311.767Z" fill="#C1C1C1"/>
<path d="M880.62 266.808L882.554 265.047L861.682 274.367L859.748 276.127L880.62 266.808Z" fill="#AFAFAF"/>
<path d="M861.989 222.558L863.924 220.797L844.48 238.412L842.538 240.173L861.989 222.558Z" fill="#979797"/>
<path d="M842.538 240.173L844.479 238.412L852.524 193.648L850.59 195.409L842.538 240.173Z" fill="#7D7D7D"/>
<path d="M881.605 260.134L883.539 258.38L868.778 223.277L866.843 225.038L881.605 260.134Z" fill="#B5B5B5"/>
<path d="M864.766 220.065L866.7 218.304L854.094 188.363L852.16 190.124L864.766 220.065Z" fill="#B5B5B5"/>
<path d="M881.362 205.054L883.296 203.293L866.7 218.31L864.766 220.071L881.362 205.054Z" fill="#979797"/>
<path d="M852.16 190.128L854.095 188.367L871.176 168.309L869.242 170.069L852.16 190.128Z" fill="#7A7A7A"/>
<path d="M853.088 181.551L855.022 179.79L861.925 141.668L859.99 143.422L853.088 181.551Z" fill="#7D7D7D"/>
<path d="M881.983 196.318L883.918 194.557L873.746 165.266L871.811 167.026L881.983 196.318Z" fill="#AEAEAE"/>
<path d="M869.991 161.739L871.925 159.978L863.824 136.699L861.889 138.46L869.991 161.739Z" fill="#AEAEAE"/>
<path d="M871.811 167.021L873.745 165.261L884.181 153.035L882.247 154.796L871.811 167.021Z" fill="#7A7A7A"/>
<path d="M862.967 126.835L864.902 125.074L868.171 106.957L866.237 108.718L862.967 126.835Z" fill="#7D7D7D"/>
<path d="M871.147 119.886L873.082 118.125L864.901 125.075L862.967 126.835L871.147 119.886Z" fill="#999999"/>
<path d="M881.155 142.804L883.089 141.05L864.944 131.777L863.01 133.538L881.155 142.804Z" fill="#D2D2D2"/>
<path d="M873.945 117.51L875.88 115.749L871.433 105.559L869.491 107.319L873.945 117.51Z" fill="#B6B6B6"/>
<path d="M882.34 136.738L884.274 134.977L878.028 120.656L876.094 122.41L882.34 136.738Z" fill="#B6B6B6"/>
<path d="M879.756 112.566L881.69 110.805L875.88 115.752L873.945 117.513L879.756 112.566Z" fill="#999999"/>
<path d="M880.32 107.356L882.254 105.602L871.775 100.246L869.841 102.007L880.32 107.356Z" fill="#D2D2D2"/>
<path d="M857.471 136.198L822.858 328.263L826.228 330.68L832.794 294.164L859.205 282.414L881.241 318.909L879.142 355.412L882.604 356.489L885.766 150.7L885.381 110.281L888.236 90.2891L864.78 99.7427L857.471 136.198ZM880.62 266.841L859.755 276.127L842.302 247.224L864.102 227.54L880.62 266.841ZM869.242 170.102L881.376 205.085L864.78 220.102L852.174 190.161L869.256 170.075L869.242 170.102ZM881.883 211.405L881.59 260.132L866.829 225.036L881.883 211.405ZM842.524 240.194L850.575 195.43L861.996 222.579L842.545 240.194H842.524ZM856.322 277.654L834.001 287.623L840.504 251.516L856.322 277.627V277.654ZM881.305 311.772L862.639 280.867L881.526 272.458L881.305 311.772ZM882.268 154.804L882.004 196.314L871.833 167.023L882.268 154.797V154.804ZM860.012 143.415L867.414 164.76L853.138 181.544L860.041 143.415H860.012ZM861.939 138.454L881.383 148.383L870.041 161.733L861.939 138.454ZM863.06 133.533L873.339 124.829L881.191 142.793L863.046 133.526L863.06 133.533ZM863.003 126.831L866.272 108.714L871.183 119.882L863.003 126.831V126.831ZM882.497 117.003L882.376 136.734L876.13 122.406L882.497 117.003V117.003ZM880.355 107.348L869.877 101.992L882.675 95.585L880.355 107.348ZM879.792 112.557L873.981 117.505L869.527 107.315L879.792 112.557" fill="#94A1A8"/>
<path d="M884.182 161.924L884.275 166.778L814.9 192.829L793.785 184.574V177.457L857.514 133.824L862.968 134.574L802.465 175.897L812.594 179.244L881.17 142.802L885.117 145.481L817.534 180.764L818.033 187.593L884.182 161.924ZM812.594 184.574L797.604 179.218V183.328L812.594 188.37V184.574Z" fill="#BDBDBD"/>
<path d="M800.088 180.099V181.551L812.594 185.977V188.367L797.625 183.326V179.215L800.088 180.099Z" fill="#AEAEAE"/>
<path d="M809.888 178.331L854.78 154.402L858.42 155.346L812.594 179.215L809.888 178.331Z" fill="#AEAEAE"/>
<path d="M818.019 187.618L817.912 186.185L882.204 161.453L885.581 161.607L818.019 187.618Z" fill="#AEAEAE"/>
<path d="M802.343 182.348L804.142 181.551L810.409 183.794L807.333 185.481L802.343 182.348Z" fill="#AEAEAE"/>
<path d="M921.692 154.799L973.993 125.996L974 117.641L916.289 128.701L916.81 133.83L970.552 121.497L970.609 124.242L920.664 150.427L921.692 154.799Z" fill="#BDBDBD"/>
<path d="M915.682 119.303L960.802 115.734L974 117.636L969.667 118.466L959.767 117.375L916.596 121.613L915.682 119.303Z" fill="#BDBDBD"/>
<path d="M916.595 121.613L959.766 117.375L969.667 118.466L965.32 119.303L960.801 118.968L917.274 124.258L916.595 121.613Z" fill="#AEAEAE"/>
<path d="M923.298 149.221L970.609 124.241L970.552 121.496L968.839 121.884L968.803 122.721L922.534 145.92L923.298 149.221Z" fill="#AEAEAE"/>
<path d="M599.944 416.374L833.817 291.871" stroke="#0FB9B6" stroke-width="1.61972"/>
<path d="M831.71 291.864L848.566 202.934" stroke="#0FB9B6" stroke-width="1.61972" stroke-linecap="square"/>
<path d="M652.571 437.504L604.316 418.205C603.581 417.975 602.846 417.056 602.846 416.137V359.389C602.846 358.7 603.581 358.24 604.316 358.47L652.571 377.769C653.306 377.999 654.04 378.918 654.04 379.837V436.585C653.795 437.504 653.306 437.734 652.571 437.504Z" fill="#ACB8BF"/>
<path d="M647.427 432.446L640.324 437.27L596.723 370.183C597.702 369.264 607.011 363.061 607.745 363.52L649.877 380.292C650.611 380.522 651.101 381.211 651.101 381.9V429.689C650.611 430.378 648.162 431.756 647.427 432.446Z" fill="#F4F3F4"/>
<path d="M639.344 437.045L597.212 420.273C596.477 420.043 595.988 419.354 595.988 418.665V370.647C595.988 369.957 596.477 369.727 597.212 369.957L639.344 386.729C640.078 386.959 640.568 387.648 640.568 388.337V436.126C640.568 437.045 640.078 437.274 639.344 437.045Z" fill="white"/>
<g opacity="0.8">
<g opacity="0.8">
<g opacity="0.8">
<path opacity="0.8" d="M602.111 398.661C601.376 398.431 600.641 397.283 600.641 396.364C600.641 395.674 601.131 395.215 601.621 395.215V395.674C601.131 395.674 600.886 396.134 600.886 396.593C600.886 397.283 601.376 398.202 602.111 398.431C602.846 398.661 603.336 398.202 603.336 397.512C603.336 397.053 603.091 396.364 602.601 395.904V395.674C603.091 396.134 603.581 396.823 603.581 397.742C603.581 398.431 603.091 398.891 602.111 398.661Z" fill="#0C0D0E"/>
</g>
<g opacity="0.8">
<path opacity="0.8" d="M602.356 397.053H602.111V395.215L602.356 395.445V397.053Z" fill="#0C0D0E"/>
</g>
</g>
</g>
<path d="M621.952 400.516V403.043C621.707 402.583 621.217 402.124 620.727 402.124C619.503 401.664 618.768 402.354 618.768 403.732C618.768 404.881 619.503 406.259 620.727 406.719C621.217 406.949 621.707 406.949 621.952 406.719V407.178L622.687 407.408V400.975L621.952 400.516ZM620.972 405.57C620.238 405.34 619.748 404.421 619.748 403.732C619.748 403.043 620.238 402.583 620.972 402.813C621.707 403.043 622.197 403.962 622.197 404.651C622.197 405.34 621.462 405.8 620.972 405.57Z" fill="#0D0D0F"/>
<path d="M618.278 405.341L617.298 405.111V400.746L618.278 400.976V405.341Z" fill="#0D0D0F"/>
<path d="M618.113 399.95C618.355 399.836 618.404 399.468 618.223 399.128C618.041 398.787 617.698 398.603 617.456 398.716C617.214 398.83 617.165 399.198 617.346 399.538C617.528 399.879 617.871 400.063 618.113 399.95Z" fill="#0D0D0F"/>
<path d="M612.644 398.909V399.139C612.399 398.679 611.909 398.45 611.419 398.22C610.195 397.76 609.46 398.45 609.46 399.828C609.46 400.977 610.195 402.355 611.419 402.815C611.909 403.045 612.154 403.045 612.644 402.815V403.274C612.644 403.964 612.154 404.423 611.419 404.193C611.174 403.964 610.929 403.734 610.684 403.504L610.195 403.964C610.44 404.423 610.929 404.883 611.419 405.112C612.644 405.572 613.379 404.883 613.379 403.734V399.369L612.644 398.909ZM611.419 401.896C610.684 401.666 610.195 400.747 610.195 400.058C610.195 399.369 610.684 398.909 611.419 399.139C612.154 399.369 612.644 400.288 612.644 400.977C612.644 401.666 612.154 402.126 611.419 401.896Z" fill="#0D0D0F"/>
<path d="M628.566 403.04L627.341 402.581L626.116 404.189L624.646 401.432L623.667 400.973L625.626 404.878L623.422 407.406L624.401 407.865L626.116 406.027L627.586 409.014L628.811 409.473L626.606 405.338L628.566 403.04Z" fill="#0D0D0F"/>
<path d="M616.318 401.198C616.563 401.198 616.563 401.198 616.318 401.198L616.808 400.509C616.563 400.509 616.563 400.279 616.318 400.279C615.828 400.049 615.338 400.049 615.093 400.279V399.82L614.358 399.59V403.955L615.093 404.185V401.887C615.338 401.198 615.828 400.968 616.318 401.198Z" fill="#0D0D0F"/>
<g opacity="0.1">
<ellipse cx="120.976" cy="113.913" rx="120.976" ry="113.913" transform="matrix(-1 0 0 1 340.952 0)" fill="#FFC612"/>
<ellipse cx="120.976" cy="113.913" rx="120.976" ry="113.913" transform="matrix(-1 0 0 1 340.952 0)" fill="url(#paint0_radial_1842_19922)"/>
</g>
<g opacity="0.2">
<ellipse cx="101.586" cy="95.3234" rx="101.586" ry="95.3234" transform="matrix(-1 0 0 1 321.562 18.1953)" fill="#FFC612"/>
<ellipse cx="101.586" cy="95.3234" rx="101.586" ry="95.3234" transform="matrix(-1 0 0 1 321.562 18.1953)" fill="url(#paint1_radial_1842_19922)"/>
</g>
<g opacity="0.3">
<ellipse cx="82.1963" cy="77.9199" rx="82.1963" ry="77.9199" transform="matrix(-1 0 0 1 302.173 35.5977)" fill="#FFC612"/>
<ellipse cx="82.1963" cy="77.9199" rx="82.1963" ry="77.9199" transform="matrix(-1 0 0 1 302.173 35.5977)" fill="url(#paint2_radial_1842_19922)"/>
</g>
<ellipse cx="51.4254" cy="48.255" rx="51.4254" ry="48.255" transform="matrix(-1 0 0 1 270.98 64.8672)" fill="#FFC612"/>
</g>
<defs>
<radialGradient id="paint0_radial_1842_19922" cx="0" cy="0" r="1" gradientUnits="userSpaceOnUse" gradientTransform="translate(120.976 113.913) rotate(90) scale(172.769 183.48)">
<stop stop-color="white" stop-opacity="0.75"/>
<stop offset="1" stop-color="white" stop-opacity="0"/>
</radialGradient>
<radialGradient id="paint1_radial_1842_19922" cx="0" cy="0" r="1" gradientUnits="userSpaceOnUse" gradientTransform="translate(101.586 95.3234) rotate(90) scale(144.574 154.072)">
<stop stop-color="white" stop-opacity="0.75"/>
<stop offset="1" stop-color="white" stop-opacity="0"/>
</radialGradient>
<radialGradient id="paint2_radial_1842_19922" cx="0" cy="0" r="1" gradientUnits="userSpaceOnUse" gradientTransform="translate(82.1963 77.9199) rotate(90) scale(118.179 124.664)">
<stop stop-color="white" stop-opacity="0.75"/>
<stop offset="1" stop-color="white" stop-opacity="0"/>
</radialGradient>
<clipPath id="clip0_1842_19922">
<rect width="1071" height="722.482" fill="white"/>
</clipPath>
<clipPath id="clip1_1842_19922">
<rect width="823.03" height="570.472" fill="white" transform="translate(140.626 153.527)"/>
</clipPath>
</defs>
</svg>
